<mxfile host="app.diagrams.net" modified="2021-09-17T11:05:08.624Z" agent="5.0 (Windows NT 10.0; Win64; x64) AppleWebKit/537.36 (KHTML, like Gecko) Chrome/93.0.4577.82 Safari/537.36" etag="VamblGpEC-iu9HBJUhZn" version="15.2.5" type="github">
  <diagram id="6a731a19-8d31-9384-78a2-239565b7b9f0" name="Page-1">
    <mxGraphModel dx="865" dy="456" grid="1" gridSize="10" guides="1" tooltips="1" connect="1" arrows="1" fold="1" page="1" pageScale="1" pageWidth="1169" pageHeight="827" background="none" math="0" shadow="0">
      <root>
        <mxCell id="0" />
        <mxCell id="1" parent="0" />
        <mxCell id="nc8T2WsQ679ISCb1MF3R-1779" value="流媒体服务器" style="rounded=0;whiteSpace=wrap;html=1;" vertex="1" parent="1">
          <mxGeometry x="600" y="200" width="120" height="40" as="geometry" />
        </mxCell>
        <mxCell id="nc8T2WsQ679ISCb1MF3R-1780" value="文件服务期（存储票据文件）" style="rounded=0;whiteSpace=wrap;html=1;" vertex="1" parent="1">
          <mxGeometry x="600" y="280" width="120" height="40" as="geometry" />
        </mxCell>
        <mxCell id="nc8T2WsQ679ISCb1MF3R-1781" value="RPA接口" style="rounded=0;whiteSpace=wrap;html=1;" vertex="1" parent="1">
          <mxGeometry x="400" y="200" width="120" height="120" as="geometry" />
        </mxCell>
        <mxCell id="nc8T2WsQ679ISCb1MF3R-1783" value="AI中台" style="rounded=0;whiteSpace=wrap;html=1;" vertex="1" parent="1">
          <mxGeometry x="200" y="230" width="120" height="60" as="geometry" />
        </mxCell>
      </root>
    </mxGraphModel>
  </diagram>
</mxfile>
